<svg width="38" height="37" viewBox="0 0 38 37" fill="none" xmlns="http://www.w3.org/2000/svg">
<path d="M21.3839 0.644166C29.9036 2.03795 36.4874 9.39083 36.6585 18.3634C36.8261 27.1516 30.7864 34.5936 22.5879 36.4731L14.225 21.1437C19.6928 20.0649 23.6893 14.4755 23.5689 8.15973C23.5153 5.34828 22.7487 2.77819 21.3839 0.644166ZM15.4217 36.6657C8.13334 35.4051 2.29093 29.7784 0.721737 22.5259L0.720392 22.4554L7.60496 22.3398L15.4217 36.6657ZM0.29291 15.7964L8.85493 15.6527C14.2062 15.5628 17.2819 12.438 17.197 7.9834C17.1091 3.37515 13.9177 0.432413 8.56641 0.52226L0.00439453 0.666016L0.29291 15.7964Z" fill="#FB035C"/>
</svg>
