<svg width="161" height="29" viewBox="0 0 161 29" fill="none" xmlns="http://www.w3.org/2000/svg">
<path d="M42.2853 6.53643V10.9574C41.7912 10.8395 41.3237 10.745 40.8901 10.81C38.3028 11.1982 37.2085 13.7365 37.0753 15.305C36.9866 16.3508 36.9866 18.3106 37.0753 21.1846L33.3086 22.552C32.6448 16.8956 33.0094 11.6142 34.8184 9.4426C37.5319 6.18513 39.96 6.38906 41.1227 6.38906C41.5586 6.38906 41.9946 6.44801 42.2853 6.53643ZM48.1928 12.3058H53.9975C53.9392 11.1783 53.1807 9.81346 51.0805 9.81346C49.2137 9.81346 48.2803 11.208 48.1928 12.3058ZM54.3252 16.0407L58.0007 17.1012C57.3061 19.6347 55.0198 21.7558 51.3733 21.7558C47.4085 21.7558 43.8777 18.8688 43.8777 13.9491C43.8777 9.23561 47.3216 6.23077 51.055 6.23077C55.5118 6.23077 58.2612 9.02939 58.2612 13.7429C58.2612 14.3615 58.2033 15.0391 58.1743 15.1274H48.1609C48.2477 16.7772 49.7237 17.9555 51.4312 17.9555C53.0229 17.9555 53.9201 17.1896 54.3252 16.0407ZM66.7025 10.3551C64.8788 10.3551 63.4026 11.6513 63.4026 14.008C63.4026 16.3353 64.9367 17.6315 66.7604 17.6315C68.4682 17.6315 69.4234 16.5415 69.7418 15.4515L73.6206 16.6593C72.9838 19.2223 70.6102 21.7558 66.7604 21.7558C62.4763 21.7558 59.0317 18.5447 59.0317 14.008C59.0317 9.44182 62.3895 6.23077 66.6156 6.23077C70.5813 6.23077 72.897 8.70534 73.5338 11.3272L69.5971 12.535C69.2787 11.4156 68.4103 10.3551 66.7025 10.3551ZM89.7889 6.69098L84.1734 12.8514L89.9047 21.3404H84.5207L81.134 16.1821L79.7156 17.7444V21.3404H75.3158V0H79.7156V11.6134L84.0865 6.69098H89.7889ZM96.9423 17.7058C98.6183 17.7058 100.179 16.5202 100.179 14.0304C100.179 11.5406 98.6183 10.3846 96.9423 10.3846C95.2953 10.3846 93.7061 11.5406 93.7061 14.0304C93.7061 16.4905 95.2953 17.7058 96.9423 17.7058ZM96.9166 6.23077C101.222 6.23077 104.545 9.44182 104.545 13.9785C104.545 18.5153 101.222 21.7558 96.9166 21.7558C92.6401 21.7558 89.2883 18.5153 89.2883 13.9785C89.2883 9.44182 92.6401 6.23077 96.9166 6.23077ZM110.808 12.9258V21.3404H106.394V6.66652H110.663V8.34943C111.447 6.96177 113.219 6.28269 114.7 6.28269C118.33 6.28269 119.956 8.91041 119.956 12.1286V21.3404H115.542V12.8963C115.542 11.4495 114.787 10.3571 113.19 10.3571C111.738 10.3571 110.808 11.4495 110.808 12.9258ZM121.446 17.1601L125.181 16.4826C125.239 17.4842 125.934 18.4563 127.44 18.4563C128.569 18.4563 129.119 17.8377 129.119 17.1896C129.119 16.6593 128.772 16.2174 127.701 15.9818L126.05 15.5988C122.98 14.9212 121.764 13.1537 121.764 11.0915C121.764 8.41075 124.081 6.23077 127.295 6.23077C131.465 6.23077 132.913 8.8821 133.058 10.5907L129.409 11.2683C129.293 10.2961 128.685 9.47128 127.353 9.47128C126.513 9.47128 125.789 9.97209 125.789 10.738C125.789 11.3567 126.282 11.7102 126.919 11.828L128.83 12.211C131.813 12.8296 133.261 14.6561 133.261 16.8066C133.261 19.3107 131.378 21.7558 127.527 21.7558C123.009 21.7558 121.561 18.7804 121.446 17.1601ZM140.473 27H135.837L139.111 19.3868L133.055 6.69808H137.981L141.487 14.5474L144.674 6.69808H149.339L140.473 27ZM149.185 17.1601L152.921 16.4826C152.979 17.4842 153.674 18.4563 155.179 18.4563C156.309 18.4563 156.859 17.8377 156.859 17.1896C156.859 16.6593 156.511 16.2174 155.44 15.9818L153.789 15.5988C150.72 14.9212 149.504 13.1537 149.504 11.0915C149.504 8.41075 151.82 6.23077 155.035 6.23077C159.205 6.23077 160.652 8.8821 160.797 10.5907L157.149 11.2683C157.033 10.2961 156.425 9.47128 155.093 9.47128C154.253 9.47128 153.529 9.97209 153.529 10.738C153.529 11.3567 154.021 11.7102 154.658 11.828L156.569 12.211C159.552 12.8296 161 14.6561 161 16.8066C161 19.3107 159.118 21.7558 155.266 21.7558C150.749 21.7558 149.301 18.7804 149.185 17.1601Z" fill="#27303C"/>
<path d="M16.7343 0.480151C23.3826 1.56093 28.5122 7.28362 28.6341 14.2712C28.7536 21.1153 24.0297 26.9142 17.6279 28.3825L11.12 16.4488C15.3893 15.6056 18.516 11.2505 18.4301 6.33196C18.3919 4.14248 17.7969 2.14134 16.7343 0.480151ZM12.034 28.5364C6.34665 27.5587 1.79359 23.1799 0.578101 17.5327L0.577142 17.4777L5.95108 17.3839L12.034 28.5364ZM0.252063 12.2921L6.93538 12.1754C11.1125 12.1025 13.5173 9.66729 13.4567 6.19813C13.3941 2.60935 10.9068 0.319342 6.7297 0.392253L0.0463867 0.508911L0.252063 12.2921Z" fill="url(#paint0_linear)"/>
<defs>
<linearGradient id="paint0_linear" x1="26.6114" y1="22.4697" x2="0.309869" y2="0.514076" gradientUnits="userSpaceOnUse">
<stop stop-color="#FF6D31"/>
<stop offset="1" stop-color="#FB0389"/>
</linearGradient>
</defs>
</svg>
