<?xml version="1.0" encoding="UTF-8"?>
<svg width="1336px" height="300px" viewBox="0 0 1336 300" version="1.1" xmlns="http://www.w3.org/2000/svg" xmlns:xlink="http://www.w3.org/1999/xlink">
    <!-- Generator: Sketch 62 (91390) - https://sketch.com -->
    <title>gs-logo-horizontal-white</title>
    <desc>Created with Sketch.</desc>
    <g id="Others" stroke="none" stroke-width="1" fill="none" fill-rule="evenodd">
        <g id="Artboard" transform="translate(-158.000000, -241.000000)" fill-rule="nonzero">
            <g id="gs-logo-horizontal-white" transform="translate(158.000000, 241.000000)">
                <g id="Group">
                    <g transform="translate(0.000000, 53.000000)">
                        <g fill="#FFCC02">
                            <path d="M109.75,63.83 C106.87,64.13 104.7,64.59 103.24,65.21 C101.78,65.83 100.77,66.9 100.23,68.41 C99.68,69.92 99.41,72.27 99.41,75.44 L99.41,99.09 C92.22,99.09 84.43,100.03 76.06,101.92 C70.01,103.26 65.47,104.19 62.45,104.71 C59.43,105.23 55.85,105.49 51.74,105.49 C40.83,105.49 31.48,102.94 23.7,97.83 C15.92,92.72 10.08,86.15 6.18,78.12 C2.29,70.09 0.34,61.83 0.34,53.35 C0.34,43.63 2.65,34.77 7.26,26.76 C11.87,18.75 18.12,12.45 26,7.87 C33.88,3.29 42.51,0.99 51.88,0.99 C63.28,0.99 73.67,4.93 83.04,12.82 C84.18,10.69 85.1,7.76 85.79,4.04 L93.01,4.04 L93.75,37.06 L86.91,37.06 C85.87,32.05 83.91,27.47 81.03,23.3 C78.15,19.13 74.57,15.84 70.28,13.41 C65.99,10.98 61.27,9.77 56.11,9.77 C52.34,9.77 48.65,10.43 45.03,11.74 C41.41,13.06 38.03,15.34 34.88,18.58 C31.73,21.83 29.2,26.25 27.29,31.86 C25.38,37.46 24.43,44.38 24.43,52.61 C24.43,59.65 25.17,66.42 26.66,72.92 C28.15,79.42 31.17,85 35.73,89.66 C40.29,94.32 46.74,96.65 55.07,96.65 C61.61,96.65 66.57,95.62 69.94,93.56 C73.31,91.5 75.51,88.99 76.52,86.01 C77.54,83.04 78.04,79.71 78.04,76.04 C78.04,72.57 77.78,70.04 77.26,68.45 C76.74,66.86 75.52,65.7 73.62,64.95 C71.71,64.21 68.77,63.83 64.81,63.83 L64.81,56.99 L109.74,56.99 L109.74,63.83 L109.75,63.83 Z" id="Path"></path>
                            <path d="M195.95,72.98 C195.95,79.73 194.31,85.6 191.04,90.61 C187.77,95.62 183.34,99.45 177.76,102.1 C172.18,104.75 166.07,106.08 159.43,106.08 C153.18,106.08 147.27,104.86 141.69,102.43 C136.11,100 131.55,96.31 128,91.35 C124.45,86.39 122.68,80.32 122.68,73.13 C122.68,62.37 126.35,54.2 133.69,48.62 C141.03,43.04 149.76,40.25 159.87,40.25 C167.41,40.25 173.9,41.74 179.36,44.71 C184.81,47.69 188.94,51.68 191.74,56.69 C194.54,61.7 195.95,67.13 195.95,72.98 Z M175.42,72.53 C175.42,64.1 174.31,57.75 172.07,53.49 C169.84,49.23 165.5,47.09 159.05,47.09 C154.93,47.09 151.72,48.02 149.42,49.88 C147.11,51.74 145.5,54.62 144.59,58.51 C143.67,62.4 143.21,67.45 143.21,73.65 C143.21,81.29 144.23,87.46 146.26,92.17 C148.29,96.88 152.73,99.24 159.57,99.24 C164.08,99.24 167.52,97.94 169.87,95.33 C172.23,92.73 173.74,89.5 174.41,85.66 C175.08,81.82 175.42,77.44 175.42,72.53 Z" id="Shape"></path>
                            <path d="M253.06,103.62 L210.3,103.62 L210.3,96.78 L213.5,96.78 C216.38,96.78 218.47,96.38 219.78,95.59 C221.09,94.8 221.9,93.68 222.2,92.24 C222.5,90.8 222.65,88.7 222.65,85.92 L222.65,22.55 C222.65,18.98 221.82,16.7 220.16,15.71 C218.5,14.72 215.21,14.22 210.31,14.22 L210.31,7.38 L241.85,0.98 L241.85,85.92 C241.85,88.7 241.98,90.79 242.26,92.2 C242.53,93.61 243.33,94.73 244.64,95.55 C245.95,96.37 248.05,96.78 250.92,96.78 L253.08,96.78 L253.08,103.62 L253.06,103.62 Z" id="Path"></path>
                            <path d="M352.06,102.73 C341.55,103.18 331.95,104.29 323.28,106.08 C322.59,104.59 322.14,101.99 321.94,98.27 C315.59,103.48 308.63,106.08 301.04,106.08 C295.19,106.08 289.77,104.57 284.79,101.54 C279.81,98.52 275.84,94.39 272.89,89.16 C269.94,83.93 268.47,78.24 268.47,72.09 C268.47,68.27 269.11,64.48 270.4,60.71 C271.69,56.94 273.71,53.48 276.46,50.33 C279.21,47.18 282.62,44.71 286.69,42.93 C290.75,41.14 295.39,40.25 300.6,40.25 C304.42,40.25 307.69,40.72 310.42,41.66 C313.15,42.6 315.33,43.68 316.96,44.89 C318.6,46.11 320.26,47.56 321.94,49.24 L321.94,24.84 C321.94,21.52 321.67,19.14 321.12,17.7 C320.57,16.26 319.55,15.35 318.03,14.95 C316.52,14.55 314.05,14.31 310.63,14.21 L310.63,7.37 L341.13,0.97 L341.13,84.27 C341.13,87.84 341.29,90.32 341.61,91.71 C341.93,93.1 342.84,94.1 344.32,94.72 C345.81,95.34 348.39,95.72 352.05,95.87 L352.05,102.73 L352.06,102.73 Z M321.93,88.67 L321.93,58.55 C319.85,56.02 317.37,53.72 314.49,51.63 C311.61,49.55 308.19,48.51 304.22,48.51 C301.79,48.51 299.51,49.18 297.38,50.52 C295.25,51.86 293.54,53.57 292.25,55.65 C290.07,59.07 288.98,64.85 288.98,72.98 C288.98,81.21 290.53,87.41 293.63,91.58 C296.73,95.75 300.59,97.83 305.2,97.83 C308.52,97.83 311.62,97.01 314.5,95.38 C317.37,93.73 319.85,91.5 321.93,88.67 Z" id="Shape"></path>
                            <path d="M432.53,70.89 L386.79,70.89 C386.84,71.83 386.98,73.84 387.2,76.91 C387.42,79.99 388.12,83.13 389.28,86.36 C390.44,89.59 392.45,92.3 395.3,94.5 C398.15,96.71 401.98,97.81 406.79,97.81 C409.42,97.81 412.59,97.14 416.31,95.8 C420.03,94.46 423.25,91.88 425.98,88.06 L431.78,92 C425.93,101.37 416.63,106.06 403.89,106.06 C398.19,106.06 392.99,105.24 388.31,103.61 C383.62,101.97 379.64,99.69 376.37,96.77 C373.1,93.85 370.59,90.4 368.86,86.43 C367.12,82.46 366.26,78.2 366.26,73.64 C366.26,67.64 367.71,62.09 370.61,56.98 C373.51,51.87 377.66,47.81 383.07,44.78 C388.48,41.76 394.65,40.24 401.59,40.24 C408.38,40.24 414.12,41.7 418.81,44.63 C423.5,47.56 426.96,51.35 429.19,56.01 C431.42,60.68 432.53,65.64 432.53,70.89 Z M414.09,64.05 C414.09,52.75 409.63,47.09 400.7,47.09 C396.39,47.09 393.08,48.65 390.77,51.77 C388.46,54.89 387.19,58.99 386.94,64.04 L414.09,64.04 L414.09,64.05 Z" id="Shape"></path>
                            <path d="M531.67,103.62 L493.14,103.62 L493.14,96.78 C496.06,96.78 498.16,96.4 499.42,95.63 C500.69,94.86 501.47,93.73 501.76,92.25 C502.06,90.76 502.21,88.31 502.21,84.89 L502.21,63.84 C502.21,59.63 501.59,56.29 500.35,53.84 C499.11,51.39 496.58,50.16 492.76,50.16 C487.55,50.16 483.67,52.16 481.12,56.15 C478.57,60.14 477.29,64.74 477.29,69.95 L477.29,86.61 C477.29,90.53 477.86,93.21 479,94.64 C480.14,96.08 482.6,96.8 486.36,96.8 L486.36,103.64 L447.1,103.64 L447.1,96.8 C450.32,96.8 452.7,96.52 454.24,95.94 C455.78,95.37 456.79,94.35 457.29,92.89 C457.79,91.43 458.03,89.11 458.03,85.94 L458.03,61.9 C458.03,58.43 457.36,56.16 456.02,55.09 C454.68,54.02 451.71,53.49 447.09,53.49 L447.09,46.65 L476.02,40.25 C476.47,43.13 476.69,45.8 476.69,48.28 C476.69,48.93 476.68,49.48 476.65,49.96 C476.62,50.43 476.61,50.96 476.61,51.56 C479.73,48.24 482.98,45.52 486.35,43.42 C489.72,41.31 493.94,40.26 498.99,40.26 C503.25,40.26 507.09,41.03 510.48,42.57 C513.87,44.11 516.54,46.44 518.47,49.56 C520.41,52.68 521.37,56.45 521.37,60.86 L521.37,85.93 C521.37,90.1 521.93,92.95 523.04,94.48 C524.16,96.02 527.02,96.79 531.63,96.79 L531.63,103.62 L531.67,103.62 Z" id="Path"></path>
                        </g>
                        <g transform="translate(836.000000, 12.000000)" fill="#FFFFFF">
                            <g>
                                <path d="M50.43,24.72 C48.85,22.72 46.71,21.25 44,20.29 C41.29,19.33 38.73,18.85 36.32,18.85 C34.9,18.85 33.45,19.02 31.95,19.35 C30.45,19.68 29.04,20.2 27.71,20.91 C26.38,21.62 25.3,22.55 24.46,23.72 C23.63,24.89 23.21,26.3 23.21,27.96 C23.21,30.63 24.21,32.66 26.21,34.08 C28.21,35.5 30.72,36.7 33.76,37.7 C36.8,38.7 40.06,39.7 43.56,40.7 C47.06,41.7 50.32,43.11 53.36,44.94 C56.4,46.77 58.92,49.23 60.91,52.3 C62.91,55.38 63.91,59.5 63.91,64.66 C63.91,69.57 62.99,73.86 61.17,77.52 C59.34,81.18 56.86,84.22 53.74,86.63 C50.62,89.04 47,90.83 42.88,92 C38.76,93.16 34.41,93.75 29.84,93.75 C24.1,93.75 18.77,92.88 13.86,91.13 C8.95,89.38 4.37,86.55 0.13,82.64 L13.99,67.41 C15.99,70.08 18.5,72.14 21.54,73.59 C24.58,75.04 27.72,75.77 30.97,75.77 C32.55,75.77 34.15,75.59 35.78,75.21 C37.4,74.84 38.86,74.27 40.15,73.53 C41.44,72.78 42.48,71.82 43.27,70.66 C44.06,69.5 44.45,68.12 44.45,66.54 C44.45,63.88 43.43,61.78 41.39,60.24 C39.35,58.7 36.79,57.39 33.71,56.31 C30.63,55.23 27.3,54.15 23.73,53.07 C20.15,51.99 16.82,50.53 13.74,48.7 C10.66,46.87 8.1,44.46 6.06,41.46 C4.02,38.46 3,34.51 3,29.6 C3,24.86 3.94,20.7 5.81,17.12 C7.69,13.54 10.18,10.55 13.3,8.13 C16.42,5.72 20.02,3.91 24.1,2.7 C28.18,1.5 32.38,0.89 36.71,0.89 C41.7,0.89 46.53,1.6 51.19,3.01 C55.85,4.43 60.05,6.8 63.8,10.12 L50.43,24.72 Z" id="Path"></path>
                                <polygon id="Path" points="78.39 3.13 97.86 3.13 97.86 36.09 135.68 36.09 135.68 3.13 155.15 3.13 155.15 91.5 135.68 91.5 135.68 53.3 97.86 53.3 97.86 91.5 78.39 91.5"></polygon>
                                <polygon id="Path" points="173.87 3.13 233.91 3.13 233.91 21.1 193.34 21.1 193.34 37.58 231.66 37.58 231.66 55.55 193.34 55.55 193.34 73.52 236.15 73.52 236.15 91.49 173.86 91.49 173.86 3.13"></polygon>
                                <path d="M251.76,3.13 L285.96,3.13 C290.45,3.13 294.72,3.57 298.76,4.44 C302.79,5.31 306.33,6.77 309.37,8.81 C312.41,10.85 314.82,13.6 316.61,17.05 C318.4,20.5 319.29,24.81 319.29,29.97 C319.29,36.21 317.67,41.52 314.42,45.89 C311.17,50.26 306.43,53.02 300.19,54.19 L322.66,91.51 L299.32,91.51 L280.85,56.18 L271.24,56.18 L271.24,91.51 L251.77,91.51 L251.77,3.13 L251.76,3.13 Z M271.23,39.7 L282.71,39.7 C284.46,39.7 286.31,39.64 288.27,39.52 C290.22,39.39 291.99,39.02 293.57,38.4 C295.15,37.77 296.46,36.8 297.5,35.47 C298.54,34.14 299.06,32.27 299.06,29.85 C299.06,27.6 298.6,25.82 297.68,24.48 C296.76,23.15 295.6,22.13 294.19,21.42 C292.77,20.71 291.15,20.23 289.32,19.98 C287.49,19.73 285.7,19.6 283.95,19.6 L271.22,19.6 L271.22,39.7 L271.23,39.7 Z" id="Shape"></path>
                                <path d="M332.64,3.13 L365.47,3.13 C370.05,3.13 374.37,3.55 378.45,4.38 C382.52,5.21 386.08,6.65 389.12,8.69 C392.16,10.73 394.57,13.48 396.36,16.93 C398.15,20.38 399.04,24.73 399.04,29.97 C399.04,35.13 398.21,39.46 396.54,42.95 C394.88,46.44 392.59,49.23 389.68,51.31 C386.77,53.39 383.31,54.87 379.32,55.74 C375.33,56.62 371,57.05 366.34,57.05 L352.11,57.05 L352.11,91.5 L332.64,91.5 L332.64,3.13 L332.64,3.13 Z M352.12,40.57 L365.1,40.57 C366.85,40.57 368.53,40.4 370.16,40.07 C371.78,39.74 373.23,39.18 374.53,38.39 C375.82,37.6 376.86,36.52 377.65,35.15 C378.44,33.77 378.84,32.05 378.84,29.97 C378.84,27.72 378.32,25.92 377.28,24.54 C376.24,23.17 374.91,22.11 373.29,21.36 C371.67,20.61 369.86,20.13 367.86,19.92 C365.86,19.71 363.95,19.61 362.12,19.61 L352.14,19.61 L352.14,40.57 L352.12,40.57 Z" id="Shape"></path>
                                <path d="M431.12,3.13 L447.22,3.13 L485.66,91.5 L463.69,91.5 L456.08,72.78 L421.75,72.78 L414.39,91.5 L392.92,91.5 L431.12,3.13 Z M438.62,28.84 L427.89,56.3 L449.48,56.3 L438.62,28.84 Z" id="Shape"></path>
                            </g>
                            <path d="M470.67,7.18 L467.23,7.18 L467.23,5.32 L476.45,5.32 L476.45,7.18 L473.01,7.18 L473.01,15.84 L470.68,15.84 L470.68,7.18 L470.67,7.18 Z M478.54,5.32 L481.9,5.32 L484.27,12.24 L486.68,5.32 L489.92,5.32 L490.32,15.84 L488.11,15.84 L487.79,7.89 L484.98,15.84 L483.48,15.84 L480.67,7.85 L480.43,15.84 L478.14,15.84 L478.54,5.32 Z" id="Shape"></path>
                        </g>
                    </g>
                    <g transform="translate(544.000000, 0.000000)">
                        <path d="M249.31,54.95 C249.31,71 242.34,85.38 231.31,95.37 L204.63,55.92 C199.61,48.51 192.16,44.26 184.18,44.26 C177.09,44.26 170.4,47.62 165.49,53.56 L147.74,27.32 C157.23,11.21 174.7,0.37 194.74,0.37 C224.88,0.38 249.31,24.81 249.31,54.95 Z" id="Path" fill="#FFCC02"></path>
                        <path d="M0.09,179.27 C61,150.67 140.48,156.2 174.37,167.36 C220.75,182.63 251.8,188.94 269.74,174.68 L194.36,62.87 C191.56,58.73 187.87,56.66 184.18,56.66 C180.49,56.66 176.79,58.73 174,62.87 L165.41,75.57 L131.17,24.96 C127.57,19.64 122.82,16.98 118.08,16.98 C113.34,16.98 108.59,19.64 104.99,24.96 L0.09,179.27 M169.06,91.52 L183.37,70.4 C183.85,69.69 184.44,69.57 184.98,70.4 L215.82,116.4 C216.48,117.53 216.32,118.96 215.44,119.92 C214.55,120.89 213.15,121.17 211.96,120.61 C211.96,120.61 199.8,110.01 183.26,115.97 C173.31,119.55 165.1,129.12 165.1,129.12 C164.55,129.77 163.66,130.16 162.82,130.19 C162.01,130.19 161.23,129.86 160.66,129.27 C160.66,129.27 145.6,103.74 119.24,97.73 C99.26,93.17 73.15,103.63 73.15,103.63 C71.95,104.12 70.56,103.78 69.73,102.79 C68.89,101.79 68.8,100.37 69.49,99.27 L114.91,31.68 C116.36,29.53 117.62,28.96 118.08,28.96 C118.54,28.96 119.81,29.53 121.26,31.68 L161.72,91.49 C164.17,95.12 167.23,94.24 169.06,91.52 Z" id="Shape" fill="#FFFFFF"></path>
                    </g>
                </g>
                <g id="Group" transform="translate(0.000000, 233.000000)" fill="#FFFFFF">
                    <path d="M17.1840514,4.67391304 L23.8159486,4.67391304 L41,50.673913 L33.8257748,50.673913 L29.3631897,38.4877555 L11.3733938,38.4877555 L6.97278912,50.673913 L0,50.673913 L17.1840514,4.67391304 Z M13.5272109,32.5907218 L27.2558579,32.5907218 L20.3605442,13.7076669 L13.5272109,32.5907218 Z" id="Shape"></path>
                    <path d="M88.7978512,4.67391304 C97.8698529,4.67391304 103.861379,8.0711279 103.861379,8.0711279 L101.181365,14.1331306 C101.181365,14.1331306 95.805934,10.7359157 88.4744012,10.7359157 C77.0458355,10.7359157 71.1929312,19.1666186 71.1929312,28.3609157 C71.1929312,38.630478 78.5244639,45.6274939 89.275325,45.6274939 C93.1721271,45.6274939 97.145941,44.6768971 97.145941,44.6768971 L97.145941,32.7710616 L87.7966965,32.7710616 L87.7966965,26.9272287 L104,26.9272287 L104,49.5701332 C104,49.5701332 95.1282293,51.673913 88.4744012,51.673913 C74.8895023,51.673913 64,42.9627061 64,28.8907565 C63.9846175,16.0966584 72.9334001,4.67391304 88.7978512,4.67391304 Z" id="Path"></path>
                    <polygon id="Path" points="114 3.75083612 121 2.67391304 121 50.673913 114 50.673913"></polygon>
                    <path d="M145.637168,18.673913 C155.619961,18.673913 161,26.5068452 161,34.5463252 C161,42.1727094 156.214356,51.673913 145.362832,51.673913 C135.380039,51.673913 130,43.634433 130,35.3089636 C130,27.4919198 134.861849,18.673913 145.637168,18.673913 Z M145.560964,46.2083377 C150.620944,46.2083377 154.141593,41.7755019 154.141593,35.4519583 C154.141593,29.9069414 151.611603,24.1553767 145.5,24.1553767 C140.379056,24.1553767 136.858407,28.4611061 136.858407,34.6893199 C136.858407,40.5203261 139.571288,46.2083377 145.560964,46.2083377 Z" id="Shape"></path>
                    <path d="M169,2.77697009 L175.631579,1.67391304 L175.631579,22.4429014 C177.166667,20.6622522 179.653509,18.9446348 183.798246,18.9446348 C192.179825,18.9446348 197,25.6890407 197,34.2140958 C197,43.2906795 191.504386,51.673913 180.052632,51.673913 C176.429825,51.673913 171.27193,50.7126776 169,50.1611491 L169,2.77697009 Z M175.631579,27.6745434 L175.631579,45.8277107 C175.631579,45.8277107 177.703947,46.5210609 180.190789,46.5210609 C185.947368,46.5210609 190.16886,42.3924759 190.16886,34.6868346 C190.16886,28.2260719 187.160088,24.4440665 182.739035,24.4440665 C179.592105,24.4284041 177.04386,26.3666329 175.631579,27.6745434 Z" id="Shape"></path>
                    <path d="M220.979185,31.575213 C220.979185,27.6190262 221.240866,24.1553767 216.345905,24.1553767 C211.37398,24.1553767 206.740701,27.7620209 206.740701,27.7620209 L205.001296,22.6300999 C205.001296,22.6300999 210.17333,18.673913 218.177667,18.673913 C225.366178,18.673913 227.644335,21.7244667 227.644335,28.7312072 L227.644335,41.9820498 C227.644335,45.8746834 231,45.9382366 231,45.9382366 L228.983523,51.3402587 C224.350243,50.9907161 222.395337,48.9887903 221.533332,46.4784388 C220.732898,47.7971677 217.638914,51.673913 211.728018,51.673913 C206.417448,51.673913 203.000106,48.2738168 203.000106,43.634433 C202.969426,37.0566766 209.619183,33.1004898 220.979185,31.575213 Z M220.979185,41.4259593 L220.979185,36.0239371 C213.251921,37.1996713 209.834685,39.4875866 209.834685,43.1736723 C209.834685,45.3980344 211.450945,46.2877792 213.390458,46.2877792 C216.484442,46.2718909 218.962708,43.8568692 220.979185,41.4259593 Z" id="Shape"></path>
                    <polygon id="Path" points="240 3.75083612 247 2.67391304 247 50.673913 240 50.673913"></polygon>
                    <path d="M276,5.67391304 L289.975721,5.67391304 C301.371775,5.67391304 306,12.0119412 306,19.4320718 C306,28.7381521 299.247344,34.2723328 289.975721,34.2723328 L282.828528,34.2723328 L282.828528,50.673913 L276,50.673913 L276,5.67391304 Z M288.852807,28.4753558 C295.681335,28.4753558 298.792109,25.2445073 298.792109,19.9112885 C298.792109,15.1809553 296.212443,11.47089 288.852807,11.47089 L282.828528,11.47089 L282.828528,28.4753558 L288.852807,28.4753558 Z" id="Shape"></path>
                    <polygon id="Path" points="315 3.75083612 322 2.67391304 322 50.673913 315 50.673913"></polygon>
                    <path d="M347.979185,31.575213 C347.979185,27.6190262 348.240866,24.1553767 343.345905,24.1553767 C338.37398,24.1553767 333.740701,27.7620209 333.740701,27.7620209 L332.001296,22.6300999 C332.001296,22.6300999 337.17333,18.673913 345.177667,18.673913 C352.366178,18.673913 354.644335,21.7244667 354.644335,28.7312072 L354.644335,41.9820498 C354.644335,45.8746834 358,45.9382366 358,45.9382366 L355.983523,51.3402587 C351.350243,50.9907161 349.395337,48.9887903 348.533332,46.4784388 C347.732898,47.7971677 344.638914,51.673913 338.728018,51.673913 C333.417448,51.673913 330.000106,48.2738168 330.000106,43.634433 C329.969426,37.0566766 336.619183,33.1004898 347.979185,31.575213 Z M347.979185,41.4259593 L347.979185,36.0239371 C340.251921,37.1996713 336.834685,39.4875866 336.834685,43.1736723 C336.834685,45.3980344 338.450945,46.2877792 340.390458,46.2877792 C343.469049,46.2718909 345.962708,43.8568692 347.979185,41.4259593 Z" id="Shape"></path>
                    <path d="M367.596851,25.3992515 L363,25.3992515 L363,21.747414 L367.738535,20.0607602 L367.738535,13.0975107 L374.397673,11.673913 L374.397673,20.3238163 L384.221081,20.3238163 L384.221081,25.3837776 L374.397673,25.3837776 L374.397673,40.8576655 C374.397673,44.5713985 375.704312,46.0568918 377.971253,46.0568918 C380.584531,46.0568918 383.465435,43.8286519 384.284052,43.3644353 L386,48.4243966 C386,48.4243966 381.954141,51.673913 376.444216,51.673913 C371.091718,51.673913 367.581109,48.8421916 367.581109,42.5597931 L367.581109,25.3992515 L367.596851,25.3992515 Z" id="Path"></path>
                    <path d="M389,21.2603038 L393.758385,19.4885885 L393.758385,16.4782404 C393.758385,6.34967347 399.314952,0.673913043 407.220011,0.673913043 C412.515634,0.673913043 416,3.27660981 416,3.27660981 L413.390563,8.48200335 C413.390563,8.48200335 410.443434,6.28695789 407.158613,6.28695789 C403.612848,6.28695789 400.389426,8.81126017 400.389426,16.0705891 L400.389426,19.7551297 L408.770324,19.7551297 L408.770324,24.8821288 L400.389426,24.8821288 L400.389426,50.673913 L393.758385,50.673913 L393.758385,24.8821288 L389,24.8821288 L389,21.2603038 Z" id="Path"></path>
                    <path d="M429.637168,18.673913 C439.619961,18.673913 445,26.5068452 445,34.5463252 C445,42.1727094 440.214356,51.673913 429.362832,51.673913 C419.380039,51.673913 414,43.634433 414,35.3089636 C414,27.4919198 418.861849,18.673913 429.637168,18.673913 Z M429.560964,46.2083377 C434.620944,46.2083377 438.141593,41.7755019 438.141593,35.4519583 C438.141593,29.9069414 435.611603,24.1553767 429.5,24.1553767 C424.379056,24.1553767 420.858407,28.4611061 420.858407,34.6893199 C420.858407,40.5203261 423.571288,46.2083377 429.560964,46.2083377 Z" id="Shape"></path>
                    <path d="M454.015332,21.0210735 L460.500852,19.9494686 L460.500852,26.0269995 C461.712095,23.9603328 464.778535,19.673913 469.393526,19.673913 C471.064736,19.673913 472,20.2097155 472,20.2097155 L470.666099,26.8842834 C470.666099,26.8842834 469.332198,26.3484809 467.982964,26.3484809 C464.640545,26.3484809 461.896082,29.9613205 460.623509,31.9667525 L460.623509,50.673913 L454,50.673913 L454,21.0210735 L454.015332,21.0210735 Z" id="Path"></path>
                    <path d="M479.015609,21.0057649 L485.618256,19.93416 L485.618256,25.6136661 C487.725484,23.3479871 492.09603,19.673913 497.543604,19.673913 C501.430268,19.673913 504.224296,21.4803328 505.176451,25.6136661 C507.42416,23.2102093 511.654225,19.673913 517.023753,19.673913 C521.800136,19.673913 525,22.41416 525,28.8897155 L525,50.673913 L518.319308,50.673913 L518.319308,31.2931723 C518.319308,27.0220612 517.023753,25.4146538 514.776043,25.4146538 C511.638616,25.4146538 507.829997,28.6907032 505.504242,30.8951476 L505.504242,50.673913 L498.761113,50.673913 L498.761113,31.2931723 C498.761113,27.0220612 497.527995,25.4146538 495.280285,25.4146538 C491.939939,25.4146538 487.725484,29.0887279 485.743129,31.0329254 L485.743129,50.673913 L479,50.673913 L479,21.0057649 L479.015609,21.0057649 Z" id="Path"></path>
                    <polygon id="Path" points="554 5.67391304 581 5.67391304 581 11.4728821 560.958763 11.4728821 560.958763 25.0965935 576.809278 25.0965935 576.809278 31.0965935 560.958763 31.0965935 560.958763 50.673913 554 50.673913"></polygon>
                    <path d="M600.637168,18.673913 C610.619961,18.673913 616,26.5068452 616,34.5463252 C616,42.1727094 611.214356,51.673913 600.362832,51.673913 C590.380039,51.673913 585,43.634433 585,35.3089636 C585,27.4919198 589.861849,18.673913 600.637168,18.673913 Z M600.560964,46.2083377 C605.620944,46.2083377 609.141593,41.7755019 609.141593,35.4519583 C609.141593,29.9069414 606.611603,24.1553767 600.5,24.1553767 C595.379056,24.1553767 591.858407,28.4611061 591.858407,34.6893199 C591.858407,40.5203261 594.571288,46.2083377 600.560964,46.2083377 Z" id="Shape"></path>
                    <path d="M625.015332,21.0210735 L631.500852,19.9494686 L631.500852,26.0269995 C632.712095,23.9603328 635.778535,19.673913 640.393526,19.673913 C642.064736,19.673913 643,20.2097155 643,20.2097155 L641.666099,26.8842834 C641.666099,26.8842834 640.332198,26.3484809 638.982964,26.3484809 C635.640545,26.3484809 632.896082,29.9613205 631.623509,31.9667525 L631.623509,50.673913 L625,50.673913 L625,21.0210735 L625.015332,21.0210735 Z" id="Path"></path>
                    <path d="M667.995125,41.4511014 C667.995125,41.4511014 673.069339,45.5339926 679.651679,45.5339926 C684.03467,45.5339926 687.883532,43.492547 687.883532,39.6901597 C687.883532,30.3711942 666.769772,30.7763666 666.769772,17.0472552 C666.769772,10.2528255 672.330986,4.67391304 682.055255,4.67391304 C688.229144,4.67391304 694.057421,6.71535867 694.057421,6.71535867 L692.612134,13.104616 C692.612134,13.104616 687.396533,10.7982499 681.976706,10.7982499 C677.452329,10.7982499 673.886241,12.6994435 673.886241,16.3148282 C673.886241,25.7740457 695,24.8234489 695,39.1603189 C695,47.2481836 688.009209,51.673913 679.573131,51.673913 C671.482665,51.673913 666,47.8559422 666,47.8559422 L667.995125,41.4511014 Z" id="Path"></path>
                    <path d="M717.087786,18.673913 C724.459486,18.673913 729.796535,23.8058341 729.796535,33.3070377 L725.899394,34.4192188 L709.027435,36.707134 C709.778691,42.3951456 713.190645,46.065343 718.590298,46.065343 C723.786486,46.065343 728.090557,42.1727094 728.090557,42.1727094 L730,47.1616357 C730,47.1616357 725.288998,51.673913 717.572972,51.673913 C707.258853,51.673913 702.00003,44.0475288 702.00003,35.6585062 C701.984409,26.0937493 708.072713,18.673913 717.087786,18.673913 Z M709.027435,32.1313035 L722.424835,30.3994788 C722.424835,30.3994788 722.017904,24.0282171 716.618251,24.0282171 C712.235924,24.012382 709.63783,27.555473 709.027435,32.1313035 Z" id="Shape"></path>
                    <path d="M738,21.0210735 L744.590306,19.9494686 L744.590306,25.6902093 C746.771495,23.3479871 751.180612,19.673913 756.836122,19.673913 C761.665897,19.673913 765,22.41416 765,28.8897155 L765,50.673913 L758.269475,50.673913 L758.269475,31.2931723 C758.269475,27.0220612 756.914022,25.4146538 754.592614,25.4146538 C751.196192,25.4146538 746.849394,29.0887279 744.730525,31.09416 L744.730525,50.673913 L738,50.673913 L738,21.0210735 L738,21.0210735 Z" id="Path"></path>
                    <path d="M775,8.78409108 C775,6.41996612 776.728938,4.67391304 778.970696,4.67391304 C781.271062,4.67391304 783,6.41996612 783,8.78409108 C783,11.148216 781.271062,12.8942691 778.970696,12.8942691 C776.714286,12.8942691 775,11.148216 775,8.78409108 Z M775.761905,20.1875173 L782.091575,20.1875173 L782.091575,50.673913 L775.761905,50.673913 L775.761905,20.1875173 Z" id="Shape"></path>
                    <path d="M805.637168,18.673913 C815.619961,18.673913 821,26.5068452 821,34.5463252 C821,42.1727094 816.214356,51.673913 805.362832,51.673913 C795.380039,51.673913 790,43.634433 790,35.3089636 C790,27.4919198 794.861849,18.673913 805.637168,18.673913 Z M805.576205,46.2083377 C810.636185,46.2083377 814.156834,41.7755019 814.156834,35.4519583 C814.156834,29.9069414 811.626844,24.1553767 805.515241,24.1553767 C800.394297,24.1553767 796.873584,28.4611061 796.873584,34.6893199 C796.858407,40.5203261 799.586529,46.2083377 805.576205,46.2083377 Z" id="Shape"></path>
                    <path d="M830.015332,21.0210735 L836.500852,19.9494686 L836.500852,26.0269995 C837.712095,23.9603328 840.778535,19.673913 845.393526,19.673913 C847.064736,19.673913 848,20.2097155 848,20.2097155 L846.666099,26.8842834 C846.666099,26.8842834 845.332198,26.3484809 843.982964,26.3484809 C840.640545,26.3484809 837.896082,29.9613205 836.623509,31.9667525 L836.623509,50.673913 L830,50.673913 L830,21.0210735 L830.015332,21.0210735 Z" id="Path"></path>
                    <polygon id="Path" points="875 5.67391304 881.957482 5.67391304 881.957482 44.8769361 903 44.8769361 903 50.673913 875 50.673913"></polygon>
                    <path d="M909,8.78409108 C909,6.41996612 910.728938,4.67391304 912.970696,4.67391304 C915.271062,4.67391304 917,6.41996612 917,8.78409108 C917,11.148216 915.271062,12.8942691 912.970696,12.8942691 C910.728938,12.8942691 909,11.148216 909,8.78409108 Z M909.761905,20.1875173 L916.091575,20.1875173 L916.091575,50.673913 L909.761905,50.673913 L909.761905,20.1875173 Z" id="Shape"></path>
                    <polygon id="Path" points="923 20.673913 930.060653 20.673913 937.525661 42.2618527 946.141524 20.673913 953 20.673913 940.371695 50.673913 934.135303 50.673913"></polygon>
                    <path d="M960,8.78409108 C960,6.41996612 961.728938,4.67391304 963.970696,4.67391304 C966.271062,4.67391304 968,6.41996612 968,8.78409108 C968,11.148216 966.271062,12.8942691 963.970696,12.8942691 C961.728938,12.8942691 960,11.148216 960,8.78409108 Z M960.776557,20.1875173 L967.106227,20.1875173 L967.106227,50.673913 L960.776557,50.673913 L960.776557,20.1875173 Z" id="Shape"></path>
                    <path d="M978,21.0210735 L984.590306,19.9494686 L984.590306,25.6902093 C986.771495,23.3479871 991.180612,19.673913 996.836122,19.673913 C1001.6659,19.673913 1005,22.41416 1005,28.8897155 L1005,50.673913 L998.269475,50.673913 L998.269475,31.2931723 C998.269475,27.0220612 996.914022,25.4146538 994.592614,25.4146538 C991.196192,25.4146538 986.849394,29.0887279 984.730525,31.09416 L984.730525,50.673913 L978,50.673913 L978,21.0210735 L978,21.0210735 Z" id="Path"></path>
                    <path d="M1019.48223,39.7860412 C1015.67226,37.9115724 1013.4689,34.3470088 1013.4689,30.2600523 C1013.4689,23.4843086 1019.54344,19.673913 1026.29121,19.673913 C1029.96347,19.673913 1031.7078,20.9491664 1035.04344,20.9491664 L1038.51678,20.9491664 C1040.52122,20.9491664 1042.52567,20.2731285 1042.52567,20.2731285 L1043,25.5738804 L1039.38894,25.5738804 C1038.65449,25.5738804 1037.72113,25.5124224 1036.91017,25.3741419 C1037.84353,26.4496568 1039.11352,28.2626675 1039.11352,30.9360902 C1039.11352,37.5735534 1032.22804,41.1227525 1025.75568,41.1227525 C1024.96002,41.1227525 1024.22557,41.1227525 1023.55232,40.984472 C1022.14462,41.9217064 1021.08885,42.7206603 1021.08885,43.4735208 C1021.08885,44.6719516 1024.02665,45.2865315 1030.3001,46.8229814 C1035.64018,48.1596927 1041.71471,49.834423 1041.71471,55.4117359 C1041.71471,61.5114416 1034.30898,66.673913 1025.22014,66.673913 C1018.54886,66.673913 1012,64.0004904 1012,58.6997385 C1012,54.274763 1016.46792,51.3862373 1019.68115,49.711507 C1016.68213,48.6974501 1014.73889,47.4990193 1014.73889,45.424812 C1014.73889,43.1969598 1017.00346,41.1842105 1019.48223,39.7860412 Z M1024.48569,50.9713959 C1021.60908,52.5846682 1017.93682,54.5974175 1017.93682,57.6088591 C1017.93682,60.6356653 1021.808,61.8340961 1025.61797,61.8340961 C1030.95805,61.8340961 1035.22705,59.4218699 1035.22705,56.3950637 C1035.22705,53.7830991 1032.09033,52.9073227 1026.47483,51.4323308 C1025.81688,51.2479568 1025.15893,51.1096764 1024.48569,50.9713959 Z M1032.56466,30.7978097 C1032.56466,27.8478261 1030.49901,24.360085 1026.21471,24.360085 C1022.20582,24.360085 1019.94126,27.3100686 1019.94126,30.4597908 C1019.94126,33.3483164 1021.94571,36.4212161 1026.21471,36.4212161 C1029.90227,36.4212161 1032.56466,34.2087283 1032.56466,30.7978097 Z" id="Shape"></path>
                    <path d="M1067.99512,41.4511014 C1067.99512,41.4511014 1073.06934,45.5339926 1079.65168,45.5339926 C1084.03467,45.5339926 1087.88353,43.492547 1087.88353,39.6901597 C1087.88353,30.3711942 1066.76977,30.7763666 1066.76977,17.0472552 C1066.76977,10.2528255 1072.33099,4.67391304 1082.05525,4.67391304 C1088.22914,4.67391304 1094.05742,6.71535867 1094.05742,6.71535867 L1092.61213,13.104616 C1092.61213,13.104616 1087.39653,10.7982499 1081.97671,10.7982499 C1077.45233,10.7982499 1073.88624,12.6994435 1073.88624,16.3148282 C1073.88624,25.7740457 1095,24.8234489 1095,39.1603189 C1095,47.2481836 1088.00921,51.673913 1079.57313,51.673913 C1071.48267,51.673913 1066,47.8559422 1066,47.8559422 L1067.99512,41.4511014 Z" id="Path"></path>
                    <path d="M1116.63717,18.673913 C1126.61996,18.673913 1132,26.5068452 1132,34.5463252 C1132,42.1727094 1127.21436,51.673913 1116.36283,51.673913 C1106.38004,51.673913 1101,43.634433 1101,35.3089636 C1101,27.4919198 1105.86185,18.673913 1116.63717,18.673913 Z M1116.56096,46.2083377 C1121.62094,46.2083377 1125.14159,41.7755019 1125.14159,35.4519583 C1125.14159,29.9069414 1122.6116,24.1553767 1116.5,24.1553767 C1111.37906,24.1553767 1107.85841,28.4611061 1107.85841,34.6893199 C1107.85841,40.5203261 1110.58653,46.2083377 1116.56096,46.2083377 Z" id="Shape"></path>
                    <polygon id="Path" points="1141 3.75083612 1148 2.67391304 1148 50.673913 1141 50.673913"></polygon>
                    <path d="M1159.01569,20.673913 L1165.79216,20.673913 L1165.79216,40.0546538 C1165.79216,44.2645303 1167.09412,45.9331723 1169.61961,45.9331723 C1173.11765,45.9331723 1176.9451,42.7336661 1178.85882,40.9884809 L1178.85882,20.673913 L1185.63529,20.673913 L1185.63529,41.585518 C1185.63529,45.2595921 1187,50.8013205 1187,50.8013205 L1180.42745,51.3983575 C1180.42745,51.3983575 1179.73725,48.2600859 1179.40784,46.0556414 C1177.41569,48.1223081 1173.10196,51.673913 1167.42353,51.673913 C1162.41961,51.673913 1159,49.0714439 1159,42.5805797 L1159,20.673913 L1159.01569,20.673913 Z" id="Path"></path>
                    <path d="M1197.59685,25.3992515 L1193,25.3992515 L1193,21.747414 L1197.73854,20.0607602 L1197.73854,13.0975107 L1204.39767,11.673913 L1204.39767,20.3238163 L1214.22108,20.3238163 L1214.22108,25.3837776 L1204.39767,25.3837776 L1204.39767,40.8576655 C1204.39767,44.5713985 1205.70431,46.0568918 1207.97125,46.0568918 C1210.58453,46.0568918 1213.46543,43.8286519 1214.28405,43.3644353 L1216,48.4243966 C1216,48.4243966 1211.95414,51.673913 1206.44422,51.673913 C1201.09172,51.673913 1197.58111,48.8421916 1197.58111,42.5597931 L1197.58111,25.3992515 L1197.59685,25.3992515 Z" id="Path"></path>
                    <path d="M1222,8.78409108 C1222,6.41996612 1223.72894,4.67391304 1225.9707,4.67391304 C1228.27106,4.67391304 1230,6.41996612 1230,8.78409108 C1230,11.148216 1228.27106,12.8942691 1225.9707,12.8942691 C1223.72894,12.8942691 1222,11.148216 1222,8.78409108 Z M1222.7619,20.1875173 L1229.09158,20.1875173 L1229.09158,50.673913 L1222.7619,50.673913 L1222.7619,20.1875173 Z" id="Shape"></path>
                    <path d="M1254.63717,18.673913 C1264.61996,18.673913 1270,26.5068452 1270,34.5463252 C1270,42.1727094 1265.21436,51.673913 1254.36283,51.673913 C1244.38004,51.673913 1239,43.634433 1239,35.3089636 C1239.01524,27.4919198 1243.86185,18.673913 1254.63717,18.673913 Z M1254.5762,46.2083377 C1259.63618,46.2083377 1263.15683,41.7755019 1263.15683,35.4519583 C1263.15683,29.9069414 1260.62684,24.1553767 1254.51524,24.1553767 C1249.3943,24.1553767 1245.87358,28.4611061 1245.87358,34.6893199 C1245.85841,40.5203261 1248.58653,46.2083377 1254.5762,46.2083377 Z" id="Shape"></path>
                    <path d="M1279,21.0210735 L1285.59031,19.9494686 L1285.59031,25.6902093 C1287.77149,23.3479871 1292.18061,19.673913 1297.83612,19.673913 C1302.6659,19.673913 1306,22.41416 1306,28.8897155 L1306,50.673913 L1299.26947,50.673913 L1299.26947,31.2931723 C1299.26947,27.0220612 1297.91402,25.4146538 1295.59261,25.4146538 C1292.19619,25.4146538 1287.84939,29.0887279 1285.73053,31.09416 L1285.73053,50.673913 L1279,50.673913 L1279,21.0210735 L1279,21.0210735 Z" id="Path"></path>
                    <path d="M1315.40689,43.0665983 C1315.40689,43.0665983 1319.11736,46.2586099 1324.04919,46.2586099 C1327.62052,46.2586099 1329.30569,44.7975897 1329.30569,42.7966272 C1329.30569,37.1748755 1314.66479,37.6036532 1314.66479,27.7576474 C1314.66479,22.8981671 1318.03514,18.673913 1326.47646,18.673913 C1331.81026,18.673913 1335.1806,20.4049044 1335.1806,20.4049044 L1333.63457,26.0266561 C1333.63457,26.0266561 1330.12509,24.0892162 1326.21363,24.0892162 C1322.84329,24.0892162 1321.3591,25.4073105 1321.3591,27.2177052 C1321.3591,32.6965309 1336,32.2042307 1336,42.1772817 C1336,47.862556 1331.60928,51.673913 1324.12649,51.673913 C1317.78777,51.673913 1314,48.9106792 1314,48.9106792 L1315.40689,43.0665983 Z" id="Path"></path>
                </g>
            </g>
        </g>
    </g>
</svg>