<?xml version="1.0" encoding="UTF-8"?>
<svg width="116px" height="25px" viewBox="0 0 116 25" version="1.1" xmlns="http://www.w3.org/2000/svg" xmlns:xlink="http://www.w3.org/1999/xlink">
    <title>Group 13</title>
    <defs>
        <polygon id="path-1" points="0 24.9292105 116 24.9292105 116 -2.84217094e-14 0 -2.84217094e-14"></polygon>
    </defs>
    <g id="Designer" stroke="none" stroke-width="1" fill="none" fill-rule="evenodd" opacity="0.800000012">
        <g id="Reset-Password3" transform="translate(-19.000000, -18.000000)">
            <g id="Group-13" transform="translate(19.000000, 18.000000)">
                <path d="M34.2405683,5.51807895 C33.8898855,5.83610526 33.7147357,6.39215789 33.7147357,7.18623684 L33.7147357,7.20794737 L36.0706344,7.20794737 L36.0706344,9.78597368 L33.7147357,9.78597368 L33.7147357,19.2097895 L30.748815,19.2097895 L30.748815,9.78597368 L29.2555066,9.78597368 L29.2555066,7.20794737 L30.748815,7.20794737 L30.748815,6.92636842 C30.748815,5.49636842 31.144978,4.39531579 31.937304,3.62255263 C32.7293744,2.85005263 33.9039383,2.46347368 35.4604846,2.46347368 C35.7267225,2.46347368 35.9301057,2.47097368 36.0706344,2.48518421 L36.0706344,5.12821053 C35.2008899,5.07071053 34.5908678,5.20057895 34.2405683,5.51807895" id="Fill-1" fill="#000000"></path>
                <mask id="mask-2" fill="white">
                    <use xlink:href="#path-1"></use>
                </mask>
                <g id="Clip-4"></g>
                <polygon id="Fill-3" fill="#000000" mask="url(#mask-2)" points="37.837207 19.2098684 40.803 19.2098684 40.803 3.17842105 37.837207 3.17842105"></polygon>
                <path d="M43.4954009,19.2098684 L46.4611938,19.2098684 L46.4611938,7.20802632 L43.4954009,7.20802632 L43.4954009,19.2098684 Z M43.663652,2.56105263 C44.0001542,2.25052632 44.4417974,2.09513158 44.9887093,2.09513158 C45.5354934,2.09513158 45.9773921,2.25052632 46.3138943,2.56105263 C46.6505242,2.87171053 46.8187753,3.2725 46.8187753,3.76328947 C46.8187753,4.24 46.6505242,4.63355263 46.3138943,4.94407895 C45.9773921,5.25473684 45.5354934,5.40986842 44.9887093,5.40986842 C44.4417974,5.40986842 44.0001542,5.25473684 43.663652,4.94407895 C43.327022,4.63355263 43.1587709,4.24 43.1587709,3.76328947 C43.1587709,3.2725 43.327022,2.87171053 43.663652,2.56105263 L43.663652,2.56105263 Z" id="Fill-5" fill="#000000" mask="url(#mask-2)"></path>
                <path d="M52.9711445,10.6633421 C52.3889727,11.2915 52.0982062,12.1401842 52.0982062,13.209 C52.0982062,14.2632105 52.3889727,15.1045263 52.9711445,15.7326842 C53.552933,16.3609737 54.2927524,16.6750526 55.1902194,16.6750526 C56.1156643,16.6750526 56.8588053,16.3683421 57.4198978,15.7545263 C57.9804793,15.1405789 58.2612811,14.2921579 58.2612811,13.209 C58.2612811,12.1257105 57.9804793,11.2737368 57.4198978,10.6524211 C56.8588053,10.0317632 56.1156643,9.72097368 55.1902194,9.72097368 C54.2927524,9.72097368 53.552933,10.0350526 52.9711445,10.6633421 M58.7661621,7.79294737 C59.5512062,8.284 60.1648053,8.99518421 60.6065762,9.92676316 C61.0482194,10.8582105 61.2692326,11.9524211 61.2692326,13.209 C61.2692326,14.4654474 61.0482194,15.5595263 60.6065762,16.4911053 C60.1648053,17.4225526 59.5512062,18.1341316 58.7661621,18.6249211 C57.9804793,19.1161053 57.0970652,19.3615 56.1156643,19.3615 C55.1340079,19.3615 54.2963295,19.1197895 53.6022458,18.6357105 C52.9080344,18.1520263 52.4136291,17.5059737 52.1192855,16.6967632 L52.1192855,24.9292632 L49.1534925,24.9292632 L49.1534925,7.20794737 L52.1192855,7.20794737 L52.1192855,9.69926316 C52.4136291,8.89057895 52.9080344,8.24781579 53.6022458,7.77123684 C54.2963295,7.29452632 55.1340079,7.05623684 56.1156643,7.05623684 C57.0970652,7.05623684 57.9804793,7.30202632 58.7661621,7.79294737" id="Fill-6" fill="#000000" mask="url(#mask-2)"></path>
                <polygon id="Fill-7" fill="#000000" mask="url(#mask-2)" points="75.9507062 19.2098026 72.985041 19.2098026 66.3382921 8.81111842 66.3382921 19.2098026 63.3723714 19.2098026 63.3723714 3.91506579 66.3382921 3.91506579 72.985041 14.4004605 72.985041 3.91506579 75.9507062 3.91506579"></polygon>
                <path d="M81.9244251,10.5983947 C81.3492797,11.1978684 81.0620903,12.0681316 81.0620903,13.2089211 C81.0620903,14.3499737 81.3492797,15.2202368 81.9244251,15.8193158 C82.499315,16.4187895 83.2004251,16.7183947 84.0278833,16.7183947 C84.8552137,16.7183947 85.556196,16.4187895 86.1313414,15.8193158 C86.7062313,15.2202368 86.993804,14.3499737 86.993804,13.2089211 C86.993804,12.0681316 86.7062313,11.1978684 86.1313414,10.5983947 C85.556196,9.99918421 84.8552137,9.69931579 84.0278833,9.69931579 C83.2004251,9.69931579 82.499315,9.99918421 81.9244251,10.5983947 M87.0883414,7.79286842 C87.9929626,8.28405263 88.7044207,8.99523684 89.2234824,9.92681579 C89.7419053,10.8582632 90.0016278,11.9524737 90.0016278,13.2089211 C90.0016278,14.4653684 89.7419053,15.5558947 89.2234824,16.4802368 C88.7044207,17.4047105 87.9929626,18.1158947 87.0883414,18.6140526 C86.1839758,19.1124737 85.1637379,19.3615526 84.0278833,19.3615526 C82.8921564,19.3615526 81.8720463,19.1124737 80.9674251,18.6140526 C80.0630595,18.1158947 79.3510903,17.4047105 78.8325396,16.4802368 C78.313478,15.5558947 78.0541388,14.4653684 78.0541388,13.2089211 C78.0541388,11.9524737 78.313478,10.8582632 78.8325396,9.92681579 C79.3510903,8.99523684 80.0630595,8.28405263 80.9674251,7.79286842 C81.8720463,7.30207895 82.8921564,7.05628947 84.0278833,7.05628947 C85.1637379,7.05628947 86.1839758,7.30207895 87.0883414,7.79286842" id="Fill-8" fill="#000000" mask="url(#mask-2)"></path>
                <path d="M95.3864295,10.5983947 C94.8112841,11.1978684 94.523967,12.0681316 94.523967,13.2089211 C94.523967,14.3499737 94.8112841,15.2202368 95.3864295,15.8193158 C95.9611916,16.4187895 96.6623018,16.7183947 97.4898877,16.7183947 C98.3170903,16.7183947 99.0180727,16.4187895 99.5933458,15.8193158 C100.168108,15.2202368 100.455681,14.3499737 100.455681,13.2089211 C100.455681,12.0681316 100.168108,11.1978684 99.5933458,10.5983947 C99.0180727,9.99918421 98.3170903,9.69931579 97.4898877,9.69931579 C96.6623018,9.69931579 95.9611916,9.99918421 95.3864295,10.5983947 M100.550346,7.79286842 C101.454967,8.28405263 102.166425,8.99523684 102.685359,9.92681579 C103.20391,10.8582632 103.463632,11.9524737 103.463632,13.2089211 C103.463632,14.4653684 103.20391,15.5558947 102.685359,16.4802368 C102.166425,17.4047105 101.454967,18.1158947 100.550346,18.6140526 C99.6458524,19.1124737 98.6257423,19.3615526 97.4898877,19.3615526 C96.354033,19.3615526 95.3339229,19.1124737 94.4294295,18.6140526 C93.5249361,18.1158947 92.812967,17.4047105 92.2945441,16.4802368 C91.7753546,15.5558947 91.5161432,14.4653684 91.5161432,13.2089211 C91.5161432,11.9524737 91.7753546,10.8582632 92.2945441,9.92681579 C92.812967,8.99523684 93.5249361,8.28405263 94.4294295,7.79286842 C95.3339229,7.30207895 96.354033,7.05628947 97.4898877,7.05628947 C98.6257423,7.05628947 99.6458524,7.30207895 100.550346,7.79286842" id="Fill-9" fill="#000000" mask="url(#mask-2)"></path>
                <polygon id="Fill-10" fill="#000000" mask="url(#mask-2)" points="112.382231 19.2098026 108.532896 13.9670395 108.532896 19.2098026 105.567103 19.2098026 105.567103 3.17835526 108.532896 3.17835526 108.532896 12.1905921 112.361024 7.20796053 115.873729 7.20796053 110.972984 13.1873026 115.999949 19.2098026"></polygon>
                <polygon id="Fill-11" fill="#000000" mask="url(#mask-2)" points="9.47638238 14.3888026 13.9025233 19.4556447 13.9025233 23.2022237 2.55506608e-05 23.2022237 2.55506608e-05 0.0251184211 3.57494626 3.74761842 3.57494626 19.4619605 9.47638238 19.4619605"></polygon>
                <polygon id="Fill-12" fill="#000000" mask="url(#mask-2)" points="9.47638238 -1.31578947e-05 9.47638238 3.74775 13.9025233 8.81446053 13.9025233 3.74038158 19.8039595 3.74038158 19.8039595 19.4556447 23.3788802 23.1781447 23.3788802 -1.31578947e-05"></polygon>
            </g>
        </g>
    </g>
</svg>