<?xml version="1.0" encoding="utf-8"?>
<!-- Generator: Adobe Illustrator 24.0.2, SVG Export Plug-In . SVG Version: 6.00 Build 0)  -->
<svg version="1.1" id="Layer_1" xmlns="http://www.w3.org/2000/svg" xmlns:xlink="http://www.w3.org/1999/xlink" x="0px" y="0px"
	 viewBox="0 0 1442.67 336.95" style="enable-background:new 0 0 1442.67 336.95;" xml:space="preserve">
<style type="text/css">
	.st0{fill:#FFCC02;}
	.st1{fill:#FFFFFF;}
	.st2{fill:#3E3E4D;}
	.st3{fill:#343D5A;}
	.st4{fill:#576FB4;}
	.st5{fill:#FFCD05;}
</style>
<g>
	<g>
		<g>
			<g>
				<path class="st0" d="M167.75,136.02c-2.88,0.3-5.05,0.76-6.51,1.38c-1.46,0.62-2.47,1.69-3.01,3.2
					c-0.55,1.51-0.82,3.86-0.82,7.03v23.65c-7.19,0-14.98,0.94-23.35,2.83c-6.05,1.34-10.59,2.27-13.61,2.79
					c-3.02,0.52-6.6,0.78-10.71,0.78c-10.91,0-20.26-2.55-28.04-7.66c-7.78-5.11-13.62-11.68-17.52-19.71
					c-3.89-8.03-5.84-16.29-5.84-24.77c0-9.72,2.31-18.58,6.92-26.59s10.86-14.31,18.74-18.89c7.88-4.59,16.51-6.88,25.88-6.88
					c11.4,0,21.79,3.94,31.16,11.83c1.14-2.13,2.06-5.06,2.75-8.78h7.22l0.74,33.02h-6.84c-1.04-5.01-3-9.59-5.88-13.76
					c-2.88-4.17-6.46-7.46-10.75-9.89c-4.29-2.43-9.01-3.64-14.17-3.64c-3.77,0-7.46,0.66-11.08,1.97c-3.62,1.32-7,3.6-10.15,6.84
					c-3.15,3.25-5.68,7.67-7.59,13.28c-1.91,5.6-2.86,12.52-2.86,20.75c0,7.04,0.74,13.81,2.23,20.31
					c1.49,6.5,4.51,12.08,9.07,16.74s11.01,6.99,19.34,6.99c6.54,0,11.5-1.03,14.87-3.09c3.37-2.06,5.57-4.57,6.58-7.55
					c1.02-2.97,1.52-6.3,1.52-9.97c0-3.47-0.26-6-0.78-7.59c-0.52-1.59-1.74-2.75-3.64-3.5c-1.91-0.74-4.85-1.12-8.81-1.12v-6.84
					h44.93V136.02z"/>
				<path class="st0" d="M253.95,145.17c0,6.75-1.64,12.62-4.91,17.63c-3.27,5.01-7.7,8.84-13.28,11.49
					c-5.58,2.65-11.69,3.98-18.33,3.98c-6.25,0-12.16-1.22-17.74-3.65c-5.58-2.43-10.14-6.12-13.69-11.08
					c-3.55-4.96-5.32-11.03-5.32-18.22c0-10.76,3.67-18.93,11.01-24.51c7.34-5.58,16.07-8.37,26.18-8.37
					c7.54,0,14.03,1.49,19.49,4.46c5.45,2.98,9.58,6.97,12.38,11.98C252.54,133.89,253.95,139.32,253.95,145.17z M233.42,144.73
					c0-8.43-1.11-14.78-3.35-19.04c-2.23-4.26-6.57-6.4-13.02-6.4c-4.12,0-7.33,0.93-9.63,2.79s-3.92,4.74-4.83,8.63
					c-0.92,3.89-1.38,8.94-1.38,15.14c0,7.64,1.02,13.81,3.05,18.52c2.03,4.71,6.47,7.07,13.31,7.07c4.51,0,7.95-1.3,10.3-3.91
					c2.36-2.6,3.87-5.83,4.54-9.67C233.08,154.01,233.42,149.64,233.42,144.73z"/>
				<path class="st0" d="M311.06,175.82H268.3v-6.84h3.2c2.88,0,4.97-0.4,6.28-1.19c1.31-0.79,2.12-1.91,2.42-3.35
					c0.3-1.44,0.45-3.54,0.45-6.32V94.75c0-3.57-0.83-5.85-2.49-6.84c-1.66-0.99-4.95-1.49-9.85-1.49v-6.84l31.54-6.4v84.94
					c0,2.78,0.13,4.87,0.41,6.28c0.27,1.41,1.07,2.53,2.38,3.35s3.41,1.23,6.28,1.23h2.16V175.82z"/>
				<path class="st0" d="M410.06,174.93c-10.51,0.45-20.11,1.56-28.78,3.35c-0.69-1.49-1.14-4.09-1.34-7.81
					c-6.35,5.21-13.31,7.81-20.9,7.81c-5.85,0-11.27-1.51-16.25-4.54c-4.98-3.02-8.95-7.15-11.9-12.38
					c-2.95-5.23-4.42-10.92-4.42-17.07c0-3.82,0.64-7.61,1.93-11.38c1.29-3.77,3.31-7.23,6.06-10.38c2.75-3.15,6.16-5.62,10.23-7.4
					c4.06-1.79,8.7-2.68,13.91-2.68c3.82,0,7.09,0.47,9.82,1.41c2.73,0.94,4.91,2.02,6.54,3.23c1.64,1.22,3.3,2.67,4.98,4.35v-24.4
					c0-3.32-0.27-5.7-0.82-7.14c-0.55-1.44-1.57-2.35-3.09-2.75c-1.51-0.4-3.98-0.64-7.4-0.74v-6.84l30.5-6.4v83.3
					c0,3.57,0.16,6.05,0.48,7.44c0.32,1.39,1.23,2.39,2.71,3.01c1.49,0.62,4.07,1,7.73,1.15V174.93z M379.93,160.87v-30.12
					c-2.08-2.53-4.56-4.83-7.44-6.92c-2.88-2.08-6.3-3.12-10.27-3.12c-2.43,0-4.71,0.67-6.84,2.01c-2.13,1.34-3.84,3.05-5.13,5.13
					c-2.18,3.42-3.27,9.2-3.27,17.33c0,8.23,1.55,14.43,4.65,18.6c3.1,4.17,6.96,6.25,11.57,6.25c3.32,0,6.42-0.82,9.3-2.45
					C375.37,165.93,377.85,163.7,379.93,160.87z"/>
				<path class="st0" d="M490.53,143.09h-45.74c0.05,0.94,0.19,2.95,0.41,6.02c0.22,3.08,0.92,6.22,2.08,9.45s3.17,5.94,6.02,8.14
					c2.85,2.21,6.68,3.31,11.49,3.31c2.63,0,5.8-0.67,9.52-2.01c3.72-1.34,6.94-3.92,9.67-7.74l5.8,3.94
					c-5.85,9.37-15.15,14.06-27.89,14.06c-5.7,0-10.9-0.82-15.58-2.45c-4.69-1.64-8.67-3.92-11.94-6.84
					c-3.27-2.92-5.78-6.37-7.51-10.34c-1.74-3.97-2.6-8.23-2.6-12.79c0-6,1.45-11.55,4.35-16.66c2.9-5.11,7.05-9.17,12.46-12.2
					c5.41-3.02,11.58-4.54,18.52-4.54c6.79,0,12.53,1.46,17.22,4.39c4.69,2.93,8.15,6.72,10.38,11.38
					C489.42,132.88,490.53,137.84,490.53,143.09z M472.09,136.25c0-11.3-4.46-16.96-13.39-16.96c-4.31,0-7.62,1.56-9.93,4.68
					c-2.31,3.12-3.58,7.22-3.83,12.27H472.09z"/>
				<path class="st0" d="M589.67,175.82h-38.53v-6.84c2.92,0,5.02-0.38,6.28-1.15c1.27-0.77,2.05-1.9,2.34-3.38
					c0.3-1.49,0.45-3.94,0.45-7.36v-21.05c0-4.21-0.62-7.55-1.86-10c-1.24-2.45-3.77-3.68-7.59-3.68c-5.21,0-9.09,2-11.64,5.99
					c-2.55,3.99-3.83,8.59-3.83,13.8v16.66c0,3.92,0.57,6.6,1.71,8.03c1.14,1.44,3.6,2.16,7.36,2.16v6.84H505.1v-6.84
					c3.22,0,5.6-0.28,7.14-0.86c1.54-0.57,2.55-1.59,3.05-3.05c0.5-1.46,0.74-3.78,0.74-6.95v-24.03c0-3.47-0.67-5.74-2.01-6.81
					c-1.34-1.07-4.31-1.6-8.93-1.6v-6.84l28.93-6.4c0.45,2.88,0.67,5.55,0.67,8.03c0,0.65-0.01,1.2-0.04,1.68
					c-0.03,0.47-0.04,1-0.04,1.6c3.12-3.32,6.37-6.04,9.74-8.14c3.37-2.11,7.59-3.16,12.64-3.16c4.26,0,8.1,0.77,11.49,2.31
					c3.39,1.54,6.06,3.87,7.99,6.99c1.94,3.12,2.9,6.89,2.9,11.3v25.07c0,4.17,0.56,7.02,1.67,8.55c1.12,1.54,3.98,2.31,8.59,2.31
					V175.82z"/>
			</g>
			<g>
				<g>
					<path class="st2" d="M944.43,108.92c-1.58-2-3.72-3.47-6.43-4.43c-2.71-0.96-5.27-1.44-7.68-1.44c-1.42,0-2.87,0.17-4.37,0.5
						c-1.5,0.33-2.91,0.85-4.24,1.56c-1.33,0.71-2.41,1.64-3.25,2.81c-0.83,1.17-1.25,2.58-1.25,4.24c0,2.67,1,4.7,3,6.12
						c2,1.42,4.51,2.62,7.55,3.62c3.04,1,6.3,2,9.8,3s6.76,2.41,9.8,4.24c3.04,1.83,5.56,4.29,7.55,7.36c2,3.08,3,7.2,3,12.36
						c0,4.91-0.92,9.2-2.74,12.86c-1.83,3.66-4.31,6.7-7.43,9.11c-3.12,2.41-6.74,4.2-10.86,5.37c-4.12,1.16-8.47,1.75-13.04,1.75
						c-5.74,0-11.07-0.87-15.98-2.62c-4.91-1.75-9.49-4.58-13.73-8.49l13.86-15.23c2,2.67,4.51,4.73,7.55,6.18s6.18,2.18,9.43,2.18
						c1.58,0,3.18-0.18,4.81-0.56c1.62-0.37,3.08-0.94,4.37-1.68c1.29-0.75,2.33-1.71,3.12-2.87c0.79-1.16,1.18-2.54,1.18-4.12
						c0-2.66-1.02-4.76-3.06-6.3c-2.04-1.54-4.6-2.85-7.68-3.93c-3.08-1.08-6.41-2.16-9.98-3.24c-3.58-1.08-6.91-2.54-9.99-4.37
						c-3.08-1.83-5.64-4.24-7.68-7.24c-2.04-3-3.06-6.95-3.06-11.86c0-4.74,0.94-8.9,2.81-12.48c1.88-3.58,4.37-6.57,7.49-8.99
						c3.12-2.41,6.72-4.22,10.8-5.43c4.08-1.2,8.28-1.81,12.61-1.81c4.99,0,9.82,0.71,14.48,2.12c4.66,1.42,8.86,3.79,12.61,7.11
						L944.43,108.92z"/>
					<path class="st2" d="M972.39,87.32h19.47v32.96h37.82V87.32h19.47v88.37h-19.47v-38.2h-37.82v38.2h-19.47V87.32z"/>
					<path class="st2" d="M1067.87,87.32h60.04v17.97h-40.57v16.48h38.32v17.97h-38.32v17.97h42.81v17.97h-62.29V87.32z"/>
					<path class="st2" d="M1145.76,87.32h34.2c4.49,0,8.76,0.44,12.8,1.31c4.03,0.87,7.57,2.33,10.61,4.37
						c3.04,2.04,5.45,4.79,7.24,8.24c1.79,3.45,2.68,7.76,2.68,12.92c0,6.24-1.62,11.55-4.87,15.92c-3.24,4.37-7.99,7.13-14.23,8.3
						l22.47,37.32h-23.34l-18.47-35.33h-9.61v35.33h-19.47V87.32z M1165.23,123.9h11.48c1.75,0,3.6-0.06,5.56-0.18
						c1.95-0.13,3.72-0.5,5.3-1.12c1.58-0.63,2.89-1.6,3.93-2.93c1.04-1.33,1.56-3.2,1.56-5.62c0-2.25-0.46-4.03-1.38-5.37
						c-0.92-1.33-2.08-2.35-3.49-3.06c-1.42-0.71-3.04-1.19-4.87-1.44c-1.83-0.25-3.62-0.38-5.37-0.38h-12.73V123.9z"/>
					<path class="st2" d="M1226.64,87.32h32.83c4.58,0,8.9,0.42,12.98,1.25c4.07,0.83,7.63,2.27,10.67,4.31
						c3.04,2.04,5.45,4.79,7.24,8.24c1.79,3.45,2.68,7.8,2.68,13.04c0,5.16-0.83,9.49-2.5,12.98c-1.66,3.49-3.95,6.28-6.86,8.36
						c-2.91,2.08-6.37,3.56-10.36,4.43c-3.99,0.88-8.32,1.31-12.98,1.31h-14.23v34.45h-19.47V87.32z M1246.12,124.77h12.98
						c1.75,0,3.43-0.17,5.06-0.5c1.62-0.33,3.07-0.89,4.37-1.68c1.29-0.79,2.33-1.87,3.12-3.24c0.79-1.38,1.19-3.1,1.19-5.18
						c0-2.25-0.52-4.05-1.56-5.43c-1.04-1.37-2.37-2.43-3.99-3.18c-1.62-0.75-3.43-1.23-5.43-1.44s-3.91-0.31-5.74-0.31h-9.98
						V124.77z"/>
					<path class="st2" d="M1325.12,87.32h16.1l38.44,88.37h-21.97l-7.61-18.72h-34.33l-7.36,18.72h-21.47L1325.12,87.32z
						 M1332.62,113.04l-10.73,27.46h21.59L1332.62,113.04z"/>
				</g>
				<g>
					<path class="st2" d="M1366.73,92.49h-5.51v-2.97h14.74v2.97h-5.51v13.86h-3.73V92.49z M1379.33,89.52h5.38l3.8,11.07
						l3.86-11.07h5.19l0.63,16.83h-3.54l-0.51-12.72l-4.49,12.72h-2.41l-4.49-12.78l-0.38,12.78h-3.67L1379.33,89.52z"/>
				</g>
			</g>
		</g>
		<g>
			<path class="st0" d="M851.31,74.15c0,16.05-6.97,30.43-18,40.42l-26.68-39.45c-5.02-7.41-12.47-11.66-20.45-11.66
				c-7.09,0-13.78,3.36-18.69,9.3l-17.75-26.24c9.49-16.11,26.96-26.95,47-26.95C826.88,19.58,851.31,44.01,851.31,74.15z"/>
			<path class="st2" d="M602.09,198.47c60.91-28.6,140.39-23.07,174.28-11.91c46.38,15.27,77.43,21.58,95.37,7.32L796.36,82.07
				c-2.8-4.14-6.49-6.21-10.18-6.21c-3.69,0-7.39,2.07-10.18,6.21l-8.59,12.7l-34.24-50.61c-3.6-5.32-8.35-7.98-13.09-7.98
				c-4.74,0-9.49,2.66-13.09,7.98L602.09,198.47 M771.06,110.72l14.31-21.12c0.48-0.71,1.07-0.83,1.61,0l30.84,46
				c0.66,1.13,0.5,2.56-0.38,3.52c-0.89,0.97-2.29,1.25-3.48,0.69c0,0-12.16-10.6-28.7-4.64c-9.95,3.58-18.16,13.15-18.16,13.15
				c-0.55,0.65-1.44,1.04-2.28,1.07c-0.81,0-1.59-0.33-2.16-0.92c0,0-15.06-25.53-41.42-31.54c-19.98-4.56-46.09,5.9-46.09,5.9
				c-1.2,0.49-2.59,0.15-3.42-0.84c-0.84-1-0.93-2.42-0.24-3.52l45.42-67.59c1.45-2.15,2.71-2.72,3.17-2.72
				c0.46,0,1.73,0.57,3.18,2.72l40.46,59.81C766.17,114.32,769.23,113.43,771.06,110.72z"/>
		</g>
	</g>
	<g>
		<path class="st2" d="M76.06,256.47h6.57l17.02,45.02h-7.1l-4.42-11.93H70.3l-4.35,11.93h-6.9L76.06,256.47z M72.45,283.8h13.6
			l-6.83-18.49L72.45,283.8z"/>
		<path class="st2" d="M146.82,256c9.04,0,15.01,3.35,15.01,3.35l-2.68,5.97c0,0-5.36-3.35-12.66-3.35
			c-11.39,0-17.22,8.31-17.22,17.36c0,10.11,7.3,17.02,18.02,17.02c3.89,0,7.84-0.94,7.84-0.94v-11.72h-9.31v-5.76h16.15v22.31
			c0,0-8.84,2.08-15.48,2.08c-13.53,0-24.39-8.58-24.39-22.44C122.09,267.26,131.01,256,146.82,256z"/>
		<path class="st2" d="M171.74,254.66l6.63-1.07v47.9h-6.63V254.66z"/>
		<path class="st2" d="M202.83,270.41c10.05,0,15.48,7.57,15.48,15.34c0,7.37-4.82,16.55-15.74,16.55
			c-10.05,0-15.48-7.77-15.48-15.81C187.08,278.91,191.98,270.41,202.83,270.41z M202.76,297.01c5.09,0,8.64-4.29,8.64-10.39
			c0-5.36-2.55-10.92-8.71-10.92c-5.16,0-8.71,4.15-8.71,10.18C193.99,291.51,196.73,297.01,202.76,297.01z"/>
		<path class="st2" d="M226.82,254.66l6.63-1.07v20.23c1.54-1.74,4.02-3.41,8.17-3.41c8.38,0,13.2,6.56,13.2,14.87
			c0,8.84-5.49,17.02-16.95,17.02c-3.62,0-8.78-0.94-11.05-1.48V254.66z M233.45,278.91v17.69c0,0,2.08,0.67,4.56,0.67
			c5.76,0,9.98-4.02,9.98-11.52c0-6.3-3.01-9.98-7.44-9.98C237.4,275.76,234.86,277.64,233.45,278.91z"/>
		<path class="st2" d="M279.01,282.87c0-3.82,0.27-7.17-4.62-7.17c-4.96,0-9.58,3.48-9.58,3.48l-1.74-4.96c0,0,5.16-3.82,13.13-3.82
			c7.17,0,9.44,2.94,9.44,9.71v12.8c0,3.75,3.35,3.82,3.35,3.82l-2.01,5.23c-4.62-0.34-6.57-2.28-7.44-4.69
			c-0.8,1.27-3.89,5.03-9.78,5.03c-5.29,0-8.71-3.28-8.71-7.77C261.05,288.16,267.69,284.34,279.01,282.87z M279.01,292.38v-5.23
			c-7.7,1.14-11.12,3.35-11.12,6.9c0,2.14,1.61,3.01,3.55,3.01C274.52,297.07,277,294.73,279.01,292.38z"/>
		<path class="st2" d="M297.04,254.66l6.63-1.07v47.9h-6.63V254.66z"/>
		<path class="st2" d="M333.28,256.81h14.14c11.52,0,16.21,6.3,16.21,13.67c0,9.25-6.83,14.74-16.21,14.74h-7.23v16.28h-6.9V256.81z
			 M346.28,279.45c6.9,0,10.05-3.21,10.05-8.51c0-4.69-2.61-8.38-10.05-8.38h-6.1v16.88H346.28z"/>
		<path class="st2" d="M371.34,254.66l6.63-1.07v47.9h-6.63V254.66z"/>
		<path class="st2" d="M404.17,282.87c0-3.82,0.27-7.17-4.62-7.17c-4.96,0-9.58,3.48-9.58,3.48l-1.74-4.96c0,0,5.16-3.82,13.13-3.82
			c7.17,0,9.44,2.94,9.44,9.71v12.8c0,3.75,3.35,3.82,3.35,3.82l-2.01,5.23c-4.62-0.34-6.57-2.28-7.44-4.69
			c-0.8,1.27-3.89,5.03-9.78,5.03c-5.29,0-8.71-3.28-8.71-7.77C386.21,288.16,392.84,284.34,404.17,282.87z M404.17,292.38v-5.23
			c-7.7,1.14-11.12,3.35-11.12,6.9c0,2.14,1.61,3.01,3.55,3.01C399.68,297.07,402.16,294.73,404.17,292.38z"/>
		<path class="st2" d="M423.53,276.23h-4.49v-3.62l4.62-1.67v-6.9l6.5-1.41v8.58h9.58v5.03h-9.58v15.34c0,3.68,1.27,5.16,3.48,5.16
			c2.55,0,5.36-2.21,6.16-2.68l1.67,5.02c0,0-3.95,3.22-9.31,3.22c-5.23,0-8.64-2.81-8.64-9.05V276.23z"/>
		<path class="st2" d="M445.58,272.69l4.76-1.74v-2.95c0-9.92,5.56-15.48,13.47-15.48c5.29,0,8.78,2.55,8.78,2.55l-2.61,5.09
			c0,0-2.95-2.14-6.23-2.14c-3.55,0-6.77,2.48-6.77,9.58v3.62h8.38v5.03h-8.38v25.26h-6.63v-25.26h-4.76V272.69z"/>
		<path class="st2" d="M485.91,270.41c10.05,0,15.48,7.57,15.48,15.34c0,7.37-4.82,16.55-15.74,16.55
			c-10.05,0-15.48-7.77-15.48-15.81C470.17,278.91,475.06,270.41,485.91,270.41z M485.84,297.01c5.09,0,8.64-4.29,8.64-10.39
			c0-5.36-2.55-10.92-8.71-10.92c-5.16,0-8.71,4.15-8.71,10.18C477.07,291.51,479.81,297.01,485.84,297.01z"/>
		<path class="st2" d="M509.9,271.74l6.5-1.07v6.1c1.21-2.08,4.29-6.36,8.91-6.36c1.67,0,2.61,0.54,2.61,0.54l-1.34,6.7
			c0,0-1.34-0.54-2.68-0.54c-3.35,0-6.1,3.62-7.37,5.63v18.76h-6.63V271.74z"/>
		<path class="st2" d="M534.56,271.74l6.5-1.07v5.7c2.08-2.28,6.37-5.96,11.72-5.96c3.82,0,6.57,1.81,7.5,5.96
			c2.21-2.41,6.37-5.96,11.66-5.96c4.69,0,7.84,2.74,7.84,9.24v21.84h-6.57v-19.43c0-4.29-1.27-5.89-3.48-5.89
			c-3.08,0-6.83,3.28-9.11,5.49v19.83h-6.63v-19.43c0-4.29-1.21-5.89-3.42-5.89c-3.28,0-7.44,3.68-9.38,5.63v19.7h-6.63V271.74z"/>
		<path class="st2" d="M609.06,256.81h26.8v5.76h-19.9v13.53h15.74v5.96h-15.74v19.43h-6.9V256.81z"/>
		<path class="st2" d="M655.16,270.41c10.05,0,15.48,7.57,15.48,15.34c0,7.37-4.82,16.55-15.74,16.55
			c-10.05,0-15.48-7.77-15.48-15.81C639.42,278.91,644.31,270.41,655.16,270.41z M655.09,297.01c5.09,0,8.64-4.29,8.64-10.39
			c0-5.36-2.55-10.92-8.71-10.92c-5.16,0-8.71,4.15-8.71,10.18C646.32,291.51,649.06,297.01,655.09,297.01z"/>
		<path class="st2" d="M679.14,271.74l6.5-1.07v6.1c1.21-2.08,4.29-6.36,8.91-6.36c1.67,0,2.61,0.54,2.61,0.54l-1.34,6.7
			c0,0-1.34-0.54-2.68-0.54c-3.35,0-6.1,3.62-7.37,5.63v18.76h-6.63V271.74z"/>
		<path class="st2" d="M721.56,292.25c0,0,4.96,4.02,11.39,4.02c4.29,0,8.04-2.01,8.04-5.76c0-9.18-20.64-8.78-20.64-22.31
			c0-6.7,5.43-12.19,14.94-12.19c6.03,0,11.72,2.01,11.72,2.01l-1.41,6.3c0,0-5.09-2.28-10.39-2.28c-4.42,0-7.91,1.87-7.91,5.43
			c0,9.31,20.64,8.38,20.64,22.51c0,7.97-6.84,12.33-15.08,12.33c-7.91,0-13.26-3.75-13.26-3.75L721.56,292.25z"/>
		<path class="st2" d="M769.8,270.41c7.24,0,12.46,4.96,12.46,14.13l-3.82,1.08l-16.55,2.21c0.74,5.5,4.09,9.05,9.38,9.05
			c5.09,0,9.31-3.75,9.31-3.75l1.88,4.83c0,0-4.62,4.36-12.19,4.36c-10.12,0-15.27-7.37-15.27-15.48
			C754.99,277.58,760.95,270.41,769.8,270.41z M761.89,283.4l13.13-1.68c0,0-0.4-6.16-5.7-6.16
			C765.04,275.56,762.49,278.98,761.89,283.4z"/>
		<path class="st2" d="M791.04,271.74l6.5-1.07v5.76c2.14-2.34,6.5-6.03,12.06-6.03c4.76,0,8.04,2.74,8.04,9.24v21.84H811v-19.43
			c0-4.29-1.34-5.89-3.62-5.89c-3.35,0-7.64,3.68-9.71,5.69v19.63h-6.63V271.74z"/>
		<path class="st2" d="M827.22,259.89c0-2.35,1.81-4.09,4.15-4.09c2.41,0,4.22,1.74,4.22,4.09c0,2.34-1.81,4.09-4.22,4.09
			C829.03,263.97,827.22,262.23,827.22,259.89z M828.02,271.21h6.63v30.28h-6.63V271.21z"/>
		<path class="st2" d="M859.11,270.41c10.05,0,15.48,7.57,15.48,15.34c0,7.37-4.82,16.55-15.74,16.55
			c-10.05,0-15.48-7.77-15.48-15.81C843.37,278.91,848.26,270.41,859.11,270.41z M859.04,297.01c5.09,0,8.64-4.29,8.64-10.39
			c0-5.36-2.55-10.92-8.71-10.92c-5.16,0-8.71,4.15-8.71,10.18C850.27,291.51,853.01,297.01,859.04,297.01z"/>
		<path class="st2" d="M883.1,271.74l6.5-1.07v6.1c1.21-2.08,4.29-6.36,8.91-6.36c1.67,0,2.61,0.54,2.61,0.54l-1.34,6.7
			c0,0-1.34-0.54-2.68-0.54c-3.35,0-6.1,3.62-7.37,5.63v18.76h-6.63V271.74z"/>
		<path class="st2" d="M926.71,256.81h6.9v38.92h20.9v5.76h-27.8V256.81z"/>
		<path class="st2" d="M960.75,259.89c0-2.35,1.81-4.09,4.15-4.09c2.41,0,4.22,1.74,4.22,4.09c0,2.34-1.81,4.09-4.22,4.09
			C962.56,263.97,960.75,262.23,960.75,259.89z M961.56,271.21h6.63v30.28h-6.63V271.21z"/>
		<path class="st2" d="M975.16,271.21h6.97l7.37,21.98l8.51-21.98h6.77l-12.46,30.55h-6.16L975.16,271.21z"/>
		<path class="st2" d="M1010.67,259.89c0-2.35,1.81-4.09,4.15-4.09c2.41,0,4.22,1.74,4.22,4.09c0,2.34-1.81,4.09-4.22,4.09
			C1012.48,263.97,1010.67,262.23,1010.67,259.89z M1011.47,271.21h6.63v30.28h-6.63V271.21z"/>
		<path class="st2" d="M1028.76,271.74l6.5-1.07v5.76c2.14-2.34,6.5-6.03,12.06-6.03c4.76,0,8.04,2.74,8.04,9.24v21.84h-6.63v-19.43
			c0-4.29-1.34-5.89-3.62-5.89c-3.35,0-7.64,3.68-9.71,5.69v19.63h-6.63V271.74z"/>
		<path class="st2" d="M1070.3,290.5c-3.82-1.87-6.03-5.43-6.03-9.51c0-6.77,6.1-10.58,12.86-10.58c3.68,0,5.43,1.27,8.78,1.27h3.48
			c2.01,0,4.02-0.67,4.02-0.67l0.47,5.29h-3.62c-0.74,0-1.67-0.07-2.48-0.2c0.94,1.07,2.21,2.88,2.21,5.56
			c0,6.63-6.9,10.18-13.4,10.18c-0.81,0-1.54,0-2.21-0.13c-1.41,0.94-2.48,1.74-2.48,2.48c0,1.2,2.95,1.81,9.25,3.35
			c5.36,1.34,11.46,3.01,11.46,8.58c0,6.1-7.44,11.25-16.55,11.25c-6.7,0-13.27-2.68-13.27-7.97c0-4.42,4.49-7.3,7.7-8.98
			c-3.01-1.01-4.96-2.21-4.96-4.29C1065.54,293.92,1067.82,291.91,1070.3,290.5z M1075.32,301.69c-2.88,1.61-6.57,3.62-6.57,6.63
			c0,3.02,3.89,4.22,7.7,4.22c5.36,0,9.65-2.41,9.65-5.43c0-2.61-3.15-3.48-8.78-4.96C1076.66,301.96,1075.99,301.83,1075.32,301.69
			z M1083.43,281.53c0-2.95-2.08-6.43-6.37-6.43c-4.02,0-6.3,2.95-6.3,6.1c0,2.88,2.01,5.96,6.3,5.96
			C1080.75,287.15,1083.43,284.95,1083.43,281.53z"/>
		<path class="st2" d="M1118.61,292.25c0,0,4.96,4.02,11.39,4.02c4.29,0,8.04-2.01,8.04-5.76c0-9.18-20.64-8.78-20.64-22.31
			c0-6.7,5.43-12.19,14.94-12.19c6.03,0,11.72,2.01,11.72,2.01l-1.41,6.3c0,0-5.09-2.28-10.39-2.28c-4.42,0-7.91,1.87-7.91,5.43
			c0,9.31,20.64,8.38,20.64,22.51c0,7.97-6.84,12.33-15.08,12.33c-7.91,0-13.26-3.75-13.26-3.75L1118.61,292.25z"/>
		<path class="st2" d="M1167.72,270.41c10.05,0,15.48,7.57,15.48,15.34c0,7.37-4.82,16.55-15.74,16.55
			c-10.05,0-15.48-7.77-15.48-15.81C1151.97,278.91,1156.87,270.41,1167.72,270.41z M1167.65,297.01c5.09,0,8.64-4.29,8.64-10.39
			c0-5.36-2.55-10.92-8.71-10.92c-5.16,0-8.71,4.15-8.71,10.18C1158.88,291.51,1161.62,297.01,1167.65,297.01z"/>
		<path class="st2" d="M1191.84,254.66l6.63-1.07v47.9h-6.63V254.66z"/>
		<path class="st2" d="M1208.92,271.21h6.63v19.43c0,4.22,1.27,5.9,3.75,5.9c3.42,0,7.17-3.21,9.05-4.96v-20.37h6.63v20.97
			c0,3.68,1.34,9.25,1.34,9.25l-6.43,0.6c0,0-0.67-3.15-1-5.36c-1.94,2.08-6.16,5.63-11.72,5.63c-4.89,0-8.24-2.61-8.24-9.11V271.21
			z"/>
		<path class="st2" d="M1247.51,276.23h-4.49v-3.62l4.62-1.67v-6.9l6.5-1.41v8.58h9.58v5.03h-9.58v15.34c0,3.68,1.27,5.16,3.48,5.16
			c2.55,0,5.36-2.21,6.16-2.68l1.67,5.02c0,0-3.95,3.22-9.31,3.22c-5.23,0-8.64-2.81-8.64-9.05V276.23z"/>
		<path class="st2" d="M1271.77,259.89c0-2.35,1.81-4.09,4.15-4.09c2.41,0,4.22,1.74,4.22,4.09c0,2.34-1.81,4.09-4.22,4.09
			C1273.58,263.97,1271.77,262.23,1271.77,259.89z M1272.57,271.21h6.63v30.28h-6.63V271.21z"/>
		<path class="st2" d="M1303.66,270.41c10.05,0,15.48,7.57,15.48,15.34c0,7.37-4.82,16.55-15.74,16.55
			c-10.05,0-15.48-7.77-15.48-15.81C1287.92,278.91,1292.81,270.41,1303.66,270.41z M1303.59,297.01c5.09,0,8.64-4.29,8.64-10.39
			c0-5.36-2.55-10.92-8.71-10.92c-5.16,0-8.71,4.15-8.71,10.18C1294.82,291.51,1297.56,297.01,1303.59,297.01z"/>
		<path class="st2" d="M1327.65,271.74l6.5-1.07v5.76c2.14-2.34,6.5-6.03,12.06-6.03c4.76,0,8.04,2.74,8.04,9.24v21.84h-6.63v-19.43
			c0-4.29-1.34-5.89-3.62-5.89c-3.35,0-7.64,3.68-9.71,5.69v19.63h-6.63V271.74z"/>
		<path class="st2" d="M1363.9,293.99c0,0,3.68,3.08,8.58,3.08c3.55,0,5.23-1.41,5.23-3.35c0-5.43-14.54-5.03-14.54-14.54
			c0-4.69,3.35-8.78,11.72-8.78c5.29,0,8.64,1.67,8.64,1.67l-1.54,5.43c0,0-3.48-1.88-7.37-1.88c-3.35,0-4.82,1.28-4.82,3.02
			c0,5.29,14.54,4.82,14.54,14.47c0,5.5-4.36,9.18-11.79,9.18c-6.3,0-10.05-2.68-10.05-2.68L1363.9,293.99z"/>
	</g>
</g>
</svg>
