<svg width="96" height="91" viewBox="0 0 96 91" fill="none" xmlns="http://www.w3.org/2000/svg">
<circle cx="71.4538" cy="88.8385" r="1.65385" transform="rotate(-180 71.4538 88.8385)" fill="#FFC1E3"/>
<circle cx="71.4538" cy="76.9307" r="1.65385" transform="rotate(-180 71.4538 76.9307)" fill="#FFC1E3"/>
<circle cx="71.4538" cy="65.0231" r="1.65385" transform="rotate(-180 71.4538 65.0231)" fill="#FFC1E3"/>
<circle cx="71.4538" cy="53.1154" r="1.65385" transform="rotate(-180 71.4538 53.1154)" fill="#FFC1E3"/>
<circle cx="71.4538" cy="41.8692" r="1.65385" transform="rotate(-180 71.4538 41.8692)" fill="#FFC1E3"/>
<circle cx="71.4538" cy="29.9615" r="1.65385" transform="rotate(-180 71.4538 29.9615)" fill="#FFC1E3"/>
<circle r="1.65385" transform="matrix(0 -1 -1 0 58.8845 29.9615)" fill="#FFC1E3"/>
<circle r="1.65385" transform="matrix(0 -1 -1 0 45.6538 29.9615)" fill="#FFC1E3"/>
<circle r="1.65385" transform="matrix(0 -1 -1 0 32.4228 29.9615)" fill="#FFC1E3"/>
<circle r="1.65385" transform="matrix(0 -1 -1 0 19.1921 29.9615)" fill="#FFC1E3"/>
<circle r="1.65385" transform="matrix(0 -1 -1 0 5.96139 29.9615)" fill="#FFC1E3"/>
<circle cx="84.3459" cy="74.8385" r="1.65385" transform="rotate(-180 84.3459 74.8385)" fill="#FFC1E3"/>
<circle cx="84.3462" cy="62.9308" r="1.65385" transform="rotate(-180 84.3462 62.9308)" fill="#FFC1E3"/>
<circle cx="84.3462" cy="51.0231" r="1.65385" transform="rotate(-180 84.3462 51.0231)" fill="#FFC1E3"/>
<circle cx="84.3462" cy="39.1154" r="1.65385" transform="rotate(-180 84.3462 39.1154)" fill="#FFC1E3"/>
<circle cx="84.3462" cy="27.8692" r="1.65385" transform="rotate(-180 84.3462 27.8692)" fill="#FFC1E3"/>
<circle cx="84.3462" cy="15.9615" r="1.65385" transform="rotate(-180 84.3462 15.9615)" fill="#FFC1E3"/>
<circle r="1.65385" transform="matrix(0 -1 -1 0 71.7768 15.9615)" fill="#FFC1E3"/>
<circle r="1.65385" transform="matrix(0 -1 -1 0 58.5461 15.9616)" fill="#FFC1E3"/>
<circle r="1.65385" transform="matrix(0 -1 -1 0 45.3154 15.9616)" fill="#FFC1E3"/>
<circle r="1.65385" transform="matrix(0 -1 -1 0 32.0847 15.9616)" fill="#FFC1E3"/>
<circle r="1.65385" transform="matrix(0 -1 -1 0 18.854 15.9616)" fill="#FFC1E3"/>
<circle r="1.65385" transform="matrix(0 -1 -1 0 4.96163 15.9616)" fill="#FFC1E3"/>
<circle cx="94.3459" cy="63.8385" r="1.65385" transform="rotate(-180 94.3459 63.8385)" fill="#FFC1E3"/>
<circle cx="94.3462" cy="51.9308" r="1.65385" transform="rotate(-180 94.3462 51.9308)" fill="#FFC1E3"/>
<circle cx="94.3462" cy="40.0231" r="1.65385" transform="rotate(-180 94.3462 40.0231)" fill="#FFC1E3"/>
<circle cx="94.3462" cy="28.1154" r="1.65385" transform="rotate(-180 94.3462 28.1154)" fill="#FFC1E3"/>
<circle cx="94.3462" cy="16.8692" r="1.65385" transform="rotate(-180 94.3462 16.8692)" fill="#FFC1E3"/>
<circle cx="94.3462" cy="4.96154" r="1.65385" transform="rotate(-180 94.3462 4.96154)" fill="#FFC1E3"/>
<circle r="1.65385" transform="matrix(0 -1 -1 0 81.7768 4.96154)" fill="#FFC1E3"/>
<circle r="1.65385" transform="matrix(0 -1 -1 0 68.5461 4.96157)" fill="#FFC1E3"/>
<circle r="1.65385" transform="matrix(0 -1 -1 0 55.3154 4.96157)" fill="#FFC1E3"/>
<circle r="1.65385" transform="matrix(0 -1 -1 0 42.0847 4.96157)" fill="#FFC1E3"/>
<circle r="1.65385" transform="matrix(0 -1 -1 0 28.854 4.96157)" fill="#FFC1E3"/>
<circle r="1.65385" transform="matrix(0 -1 -1 0 14.9616 4.96157)" fill="#FFC1E3"/>
</svg>
